<svg xmlns="http://www.w3.org/2000/svg" version="1.1" xmlns:xlink="http://www.w3.org/1999/xlink" xmlns:svgjs="http://svgjs.dev/svgjs" width="2000" height="1247" viewBox="0 0 2000 1247"><g transform="matrix(1,0,0,1,-1.2121212121212466,0.504858299595071)"><svg viewBox="0 0 396 247" data-background-color="#282634" preserveAspectRatio="xMidYMid meet" height="1247" width="2000" xmlns="http://www.w3.org/2000/svg" xmlns:xlink="http://www.w3.org/1999/xlink"><g id="tight-bounds" transform="matrix(1,0,0,1,0.2400000000000091,-0.09999999999999432)"><svg viewBox="0 0 395.52 247.2" height="247.2" width="395.52"><g><svg></svg></g><g><svg viewBox="0 0 395.52 247.2" height="247.2" width="395.52"><g transform="matrix(1,0,0,1,75.54432,99.09328525892646)"><svg viewBox="0 0 244.43135999999998 49.013429482147075" height="49.013429482147075" width="244.43135999999998"><g><svg viewBox="0 0 244.43135999999998 49.013429482147075" height="49.013429482147075" width="244.43135999999998"><g><svg viewBox="0 0 244.43136 49.01342948214708" height="49.013429482147075" width="244.43135999999998"><g><svg viewBox="0 0 244.43136 49.01342948214708" height="49.01342948214708" width="244.43136"><g id="textblocktransform"><svg viewBox="0 0 244.43136 49.01342948214708" height="49.01342948214708" width="244.43136" id="textblock"><g><svg viewBox="0 0 244.43136 49.01342948214708" height="49.01342948214708" width="244.43136"><g transform="matrix(1,0,0,1,0,0)"><svg width="244.43136" viewBox="1.2999999523162842 -32.75 211.42999267578125 42.400001525878906" height="49.01342948214708" data-palette-color="#ff4057"><path d="M14.65-32.75Q18.95-32.75 23.35-31.05L23.35-31.05 22.05-24.25 20.85-23.8Q18.95-25.05 17.05-25.75 15.15-26.45 13.75-26.45L13.75-26.45Q12.1-26.45 11.13-25.63 10.15-24.8 10.15-23.7L10.15-23.7Q10.15-22.45 11.38-21.58 12.6-20.7 15.25-19.5L15.25-19.5Q18.05-18.2 19.78-17.13 21.5-16.05 22.78-14.25 24.05-12.45 24.05-9.85L24.05-9.85Q24.05-6.95 22.48-4.6 20.9-2.25 18-0.88 15.1 0.5 11.3 0.5L11.3 0.5Q6.25 0.5 1.3-1.5L1.3-1.5 2.45-8.75 3.3-9.25Q5.4-7.5 7.88-6.53 10.35-5.55 12.15-5.55L12.15-5.55Q14.05-5.55 15.03-6.4 16-7.25 16-8.4L16-8.4Q16-9.75 14.75-10.65 13.5-11.55 10.85-12.75L10.85-12.75Q8.15-14 6.43-15.08 4.7-16.15 3.45-17.95 2.2-19.75 2.2-22.35L2.2-22.35Q2.2-25.3 3.78-27.68 5.35-30.05 8.18-31.4 11-32.75 14.65-32.75L14.65-32.75ZM38.6-5.8Q40.1-5.8 41.8-6.55L41.8-6.55 42.35-5.95 41.6-1.4Q39.1 0 36.4 0.35L36.4 0.35Q32.75 0.15 30.85-1.58 28.95-3.3 28.95-6.3L28.95-6.3 29.2-10.85 29.15-18.5 26.05-18.5 25.8-18.9 26.15-23.2 29.1-23.2 29.1-27.2 36.35-29.35 36.9-28.85 36.7-23.2 42.2-23.2 42.45-22.75 42.1-18.5 36.55-18.5 36.25-8.4Q36.25-6.95 36.77-6.38 37.3-5.8 38.6-5.8L38.6-5.8ZM59.5-23.45Q59.8-23.45 60.7-23.35L60.7-23.35 60.7-16.1 59.9-15.85Q59.2-16.2 58.05-16.2L58.05-16.2Q55.35-16.2 53.1-13.3L53.1-13.3 53.1-10.35 53.45 0 45.55 0 45.95-9.55 45.6-22.9 53.15-23.5 53.15-19 53.5-19Q55.85-23.45 59.5-23.45L59.5-23.45ZM83.19-11.4L82.34-10.4 69.24-10.3Q69.59-7.7 71.04-6.45 72.49-5.2 75.14-5.2L75.14-5.2Q77.79-5.2 82.14-6.75L82.14-6.75 82.74-6.35 81.54-0.7Q77.54 0.55 74.29 0.55L74.29 0.55Q68.54 0.55 65.27-2.7 61.99-5.95 61.99-11.65L61.99-11.65Q61.99-17.35 65.14-20.63 68.29-23.9 73.69-23.9L73.69-23.9Q78.34-23.9 80.92-21.4 83.49-18.9 83.49-14.45L83.49-14.45Q83.49-13 83.19-11.4L83.19-11.4ZM76.54-14.6L76.64-15.3Q76.64-18.75 73.64-18.75L73.64-18.75Q71.94-18.75 70.84-17.63 69.74-16.5 69.34-14.4L69.34-14.4 76.54-14.6ZM97.19-23.9Q101.34-23.9 103.64-22.13 105.94-20.35 105.94-17.05L105.94-17.05Q105.94-15.9 105.84-14.4 105.74-12.9 105.69-11.55L105.69-11.55Q105.44-7.95 105.44-6.6L105.44-6.6Q105.44-5.9 105.66-5.6 105.89-5.3 106.44-5.3L106.44-5.3Q106.89-5.3 107.54-5.5L107.54-5.5 108.09-5.05 107.39-0.9Q105.74 0.25 103.34 0.45L103.34 0.45Q101.84 0.3 100.79-0.6 99.74-1.5 99.29-3.15L99.29-3.15 98.94-3.15Q96.44-0.5 93.84 0.5L93.84 0.5Q90.14 0.45 88.02-1.5 85.89-3.45 85.89-6.8L85.89-6.8Q85.89-11.95 91.29-12.85L91.29-12.85 98.69-14.1 98.69-15.55Q98.69-17.1 98.02-17.78 97.34-18.45 95.84-18.45L95.84-18.45Q94.34-18.45 92.61-17.8 90.89-17.15 88.64-15.75L88.64-15.75 88.14-16.1 87.24-21.25Q89.49-22.5 92.09-23.2 94.69-23.9 97.19-23.9L97.19-23.9ZM98.69-10.4L94.39-9.55Q93.64-9.4 93.27-8.95 92.89-8.5 92.89-7.6L92.89-7.6Q92.89-6.4 93.52-5.75 94.14-5.1 95.24-5.1L95.24-5.1Q96.84-5.1 98.64-6.8L98.64-6.8 98.69-10.4ZM139.24 0L139.64-14Q139.74-17.45 136.84-17.45L136.84-17.45Q135.09-17.45 133.09-16L133.09-16 132.94-10.35 133.29 0 125.44 0 125.84-14Q125.94-17.45 122.99-17.45L122.99-17.45Q121.29-17.45 119.19-15.9L119.19-15.9 119.19-10.35 119.54 0 111.69 0 112.04-9.55 111.74-22.9 119.19-23.5 119.19-20.05 119.54-20.05Q122.29-22.65 125.49-23.7L125.49-23.7Q128.29-23.7 130.11-22.73 131.94-21.75 132.64-19.95L132.64-19.95 132.94-19.95Q135.69-22.55 139.34-23.7L139.34-23.7Q143.09-23.7 145.06-21.98 147.04-20.25 146.94-17.05L146.94-17.05 146.79-10.35 147.09 0 139.24 0ZM163.08-32.25L162.63-10.65 162.73-6.1Q162.73-3.15 161.76-1.07 160.78 1 158.53 2.55 156.28 4.1 152.33 5.45L152.33 5.45 150.03 1.2 150.03 0.5Q152.93-0.95 154.08-2.45 155.23-3.95 155.23-6.3L155.23-6.3 155.23-9.85 154.93-26.45 150.08-26.3 149.58-26.85 149.93-32.25 163.08-32.25ZM178.28-23.9Q183.58-23.9 186.36-20.9 189.13-17.9 189.13-12.15L189.13-12.15Q189.13-5.95 186.16-2.7 183.18 0.55 177.53 0.55L177.53 0.55Q172.23 0.55 169.46-2.45 166.68-5.45 166.68-11.15L166.68-11.15Q166.68-17.35 169.66-20.63 172.63-23.9 178.28-23.9L178.28-23.9ZM177.73-18.55Q175.73-18.55 174.91-17.23 174.08-15.9 174.08-12.6L174.08-12.6Q174.08-9.55 174.46-7.83 174.83-6.1 175.71-5.38 176.58-4.65 178.08-4.65L178.08-4.65Q180.03-4.65 180.86-5.98 181.68-7.3 181.68-10.65L181.68-10.65Q181.68-15.1 180.81-16.82 179.93-18.55 177.73-18.55L177.73-18.55ZM196.98-23.55L197.78-19.55 201.28-7.8 201.73-7.8 205.13-18.85 206.03-23.4 212.73-23.4 205.43-1.95Q204.28 1.5 202.73 3.65 201.18 5.8 198.85 7.18 196.53 8.55 192.83 9.65L192.83 9.65 192.28 9.6Q190.33 7.7 188.83 4.9L188.83 4.9 189.13 4.15Q191.98 3.7 194.03 2.75 196.08 1.8 197.98 0L197.98 0 189.48-23.25 196.98-23.55Z" opacity="1" transform="matrix(1,0,0,1,0,0)" fill="#ff4057" class="undefined-text-0" data-fill-palette-color="primary" id="text-0"></path></svg></g></svg></g></svg></g></svg></g></svg></g></svg></g></svg></g><path d="M190.429 93.093L190.429 32.389 8.007 32.389 8.007 214.811 190.429 214.811 190.429 154.107 186.009 154.107 186.009 210.391 12.427 210.391 12.427 36.809 186.009 36.809 186.009 93.093Z" fill="#ff4057" stroke="transparent" data-fill-palette-color="primary"></path></svg></g><defs></defs></svg><rect width="395.52" height="247.2" fill="none" stroke="none" visibility="hidden"></rect></g></svg></g></svg>